<svg width="420" height="420" viewBox="0 0 420 420" fill="none" xmlns="http://www.w3.org/2000/svg">
<mask id="path-1-outside-1" maskUnits="userSpaceOnUse" x="117.553" y="290.087" width="185" height="69" fill="black">
<rect fill="white" x="117.553" y="290.087" width="185" height="69"/>
<path d="M142.779 357.943C137.437 357.943 132.708 356.803 128.59 354.521C124.528 352.24 121.634 349.207 119.909 345.423C119.464 344.533 119.436 343.726 119.826 343.003C120.271 342.224 120.994 341.695 121.996 341.417C122.775 341.195 123.526 341.278 124.25 341.667C125.029 342.057 125.613 342.641 126.002 343.42C127.282 345.869 129.397 347.872 132.346 349.43C135.295 350.988 138.773 351.767 142.779 351.767C147.175 351.767 150.792 350.71 153.63 348.595C156.523 346.425 157.97 343.309 157.97 339.247C157.97 335.853 156.718 332.931 154.214 330.483C151.71 328.035 147.787 326.477 142.445 325.809C135.935 325.03 130.843 323.027 127.171 319.799C123.498 316.516 121.662 312.51 121.662 307.78C121.662 304.386 122.552 301.437 124.333 298.933C126.169 296.429 128.673 294.509 131.845 293.174C135.017 291.782 138.661 291.087 142.779 291.087C147.398 291.087 151.348 292.144 154.631 294.259C157.914 296.317 160.446 298.766 162.227 301.604C162.783 302.494 162.95 303.356 162.728 304.191C162.561 305.026 162.088 305.666 161.309 306.111C160.474 306.5 159.611 306.556 158.721 306.278C157.887 306 157.247 305.471 156.801 304.692C155.522 302.744 153.769 301.047 151.543 299.6C149.373 298.098 146.424 297.319 142.696 297.263C138.3 297.263 134.766 298.209 132.095 300.101C129.425 301.938 128.089 304.636 128.089 308.198C128.089 311.035 129.23 313.512 131.511 315.626C133.848 317.74 137.966 319.215 143.864 320.05C150.82 321.051 155.967 323.194 159.305 326.477C162.7 329.704 164.397 333.933 164.397 339.164C164.397 343.17 163.423 346.592 161.476 349.43C159.584 352.212 156.996 354.327 153.713 355.773C150.43 357.22 146.785 357.943 142.779 357.943Z"/>
<path d="M181.767 357.109C180.765 357.109 179.959 356.831 179.346 356.274C178.79 355.662 178.512 354.855 178.512 353.854V314.708C178.512 313.706 178.79 312.927 179.346 312.371C179.959 311.759 180.765 311.453 181.767 311.453C182.713 311.453 183.464 311.759 184.021 312.371C184.633 312.927 184.939 313.706 184.939 314.708V353.854C184.939 354.855 184.633 355.662 184.021 356.274C183.464 356.831 182.713 357.109 181.767 357.109ZM181.684 302.772C180.459 302.772 179.402 302.327 178.512 301.437C177.622 300.546 177.176 299.461 177.176 298.182C177.176 296.79 177.622 295.705 178.512 294.926C179.458 294.092 180.543 293.674 181.767 293.674C182.936 293.674 183.965 294.092 184.855 294.926C185.801 295.705 186.274 296.79 186.274 298.182C186.274 299.461 185.829 300.546 184.939 301.437C184.048 302.327 182.963 302.772 181.684 302.772Z"/>
<path d="M222.17 357.943C216.828 357.943 212.098 356.803 207.981 354.521C203.919 352.24 201.025 349.207 199.3 345.423C198.855 344.533 198.827 343.726 199.217 343.003C199.662 342.224 200.385 341.695 201.387 341.417C202.166 341.195 202.917 341.278 203.64 341.667C204.419 342.057 205.004 342.641 205.393 343.42C206.673 345.869 208.787 347.872 211.737 349.43C214.686 350.988 218.164 351.767 222.17 351.767C226.566 351.767 230.183 350.71 233.021 348.595C235.914 346.425 237.361 343.309 237.361 339.247C237.361 335.853 236.109 332.931 233.605 330.483C231.101 328.035 227.178 326.477 221.836 325.809C215.326 325.03 210.234 323.027 206.562 319.799C202.889 316.516 201.053 312.51 201.053 307.78C201.053 304.386 201.943 301.437 203.724 298.933C205.56 296.429 208.064 294.509 211.236 293.174C214.408 291.782 218.052 291.087 222.17 291.087C226.788 291.087 230.739 292.144 234.022 294.259C237.305 296.317 239.837 298.766 241.618 301.604C242.174 302.494 242.341 303.356 242.118 304.191C241.951 305.026 241.478 305.666 240.699 306.111C239.865 306.5 239.002 306.556 238.112 306.278C237.277 306 236.637 305.471 236.192 304.692C234.912 302.744 233.16 301.047 230.934 299.6C228.764 298.098 225.815 297.319 222.086 297.263C217.691 297.263 214.157 298.209 211.486 300.101C208.815 301.938 207.48 304.636 207.48 308.198C207.48 311.035 208.621 313.512 210.902 315.626C213.239 317.74 217.357 319.215 223.255 320.05C230.21 321.051 235.358 323.194 238.696 326.477C242.091 329.704 243.788 333.933 243.788 339.164C243.788 343.17 242.814 346.592 240.866 349.43C238.974 352.212 236.387 354.327 233.104 355.773C229.821 357.22 226.176 357.943 222.17 357.943Z"/>
<path d="M276.683 357.526C272.398 357.526 268.558 356.524 265.164 354.521C261.77 352.462 259.071 349.68 257.068 346.175C255.12 342.669 254.147 338.718 254.147 334.322C254.147 329.871 255.148 325.892 257.151 322.387C259.21 318.881 261.992 316.127 265.498 314.124C269.004 312.065 272.954 311.035 277.35 311.035C281.746 311.035 285.669 312.065 289.119 314.124C292.625 316.127 295.379 318.881 297.382 322.387C299.441 325.892 300.498 329.871 300.554 334.322V353.937C300.554 354.883 300.248 355.662 299.636 356.274C299.024 356.831 298.245 357.109 297.299 357.109C296.353 357.109 295.574 356.831 294.962 356.274C294.35 355.662 294.044 354.883 294.044 353.937V348.846C292.152 351.517 289.703 353.631 286.698 355.189C283.694 356.747 280.355 357.526 276.683 357.526ZM277.35 351.683C280.578 351.683 283.443 350.932 285.947 349.43C288.507 347.927 290.51 345.869 291.957 343.253C293.459 340.582 294.21 337.605 294.21 334.322C294.21 330.984 293.459 328.007 291.957 325.392C290.51 322.776 288.507 320.717 285.947 319.215C283.443 317.657 280.578 316.878 277.35 316.878C274.179 316.878 271.313 317.657 268.753 319.215C266.194 320.717 264.163 322.776 262.66 325.392C261.158 328.007 260.407 330.984 260.407 334.322C260.407 337.605 261.158 340.582 262.66 343.253C264.163 345.869 266.194 347.927 268.753 349.43C271.313 350.932 274.179 351.683 277.35 351.683Z"/>
</mask>
<path d="M142.779 357.943C137.437 357.943 132.708 356.803 128.59 354.521C124.528 352.24 121.634 349.207 119.909 345.423C119.464 344.533 119.436 343.726 119.826 343.003C120.271 342.224 120.994 341.695 121.996 341.417C122.775 341.195 123.526 341.278 124.25 341.667C125.029 342.057 125.613 342.641 126.002 343.42C127.282 345.869 129.397 347.872 132.346 349.43C135.295 350.988 138.773 351.767 142.779 351.767C147.175 351.767 150.792 350.71 153.63 348.595C156.523 346.425 157.97 343.309 157.97 339.247C157.97 335.853 156.718 332.931 154.214 330.483C151.71 328.035 147.787 326.477 142.445 325.809C135.935 325.03 130.843 323.027 127.171 319.799C123.498 316.516 121.662 312.51 121.662 307.78C121.662 304.386 122.552 301.437 124.333 298.933C126.169 296.429 128.673 294.509 131.845 293.174C135.017 291.782 138.661 291.087 142.779 291.087C147.398 291.087 151.348 292.144 154.631 294.259C157.914 296.317 160.446 298.766 162.227 301.604C162.783 302.494 162.95 303.356 162.728 304.191C162.561 305.026 162.088 305.666 161.309 306.111C160.474 306.5 159.611 306.556 158.721 306.278C157.887 306 157.247 305.471 156.801 304.692C155.522 302.744 153.769 301.047 151.543 299.6C149.373 298.098 146.424 297.319 142.696 297.263C138.3 297.263 134.766 298.209 132.095 300.101C129.425 301.938 128.089 304.636 128.089 308.198C128.089 311.035 129.23 313.512 131.511 315.626C133.848 317.74 137.966 319.215 143.864 320.05C150.82 321.051 155.967 323.194 159.305 326.477C162.7 329.704 164.397 333.933 164.397 339.164C164.397 343.17 163.423 346.592 161.476 349.43C159.584 352.212 156.996 354.327 153.713 355.773C150.43 357.22 146.785 357.943 142.779 357.943Z" fill="black"/>
<path d="M181.767 357.109C180.765 357.109 179.959 356.831 179.346 356.274C178.79 355.662 178.512 354.855 178.512 353.854V314.708C178.512 313.706 178.79 312.927 179.346 312.371C179.959 311.759 180.765 311.453 181.767 311.453C182.713 311.453 183.464 311.759 184.021 312.371C184.633 312.927 184.939 313.706 184.939 314.708V353.854C184.939 354.855 184.633 355.662 184.021 356.274C183.464 356.831 182.713 357.109 181.767 357.109ZM181.684 302.772C180.459 302.772 179.402 302.327 178.512 301.437C177.622 300.546 177.176 299.461 177.176 298.182C177.176 296.79 177.622 295.705 178.512 294.926C179.458 294.092 180.543 293.674 181.767 293.674C182.936 293.674 183.965 294.092 184.855 294.926C185.801 295.705 186.274 296.79 186.274 298.182C186.274 299.461 185.829 300.546 184.939 301.437C184.048 302.327 182.963 302.772 181.684 302.772Z" fill="black"/>
<path d="M222.17 357.943C216.828 357.943 212.098 356.803 207.981 354.521C203.919 352.24 201.025 349.207 199.3 345.423C198.855 344.533 198.827 343.726 199.217 343.003C199.662 342.224 200.385 341.695 201.387 341.417C202.166 341.195 202.917 341.278 203.64 341.667C204.419 342.057 205.004 342.641 205.393 343.42C206.673 345.869 208.787 347.872 211.737 349.43C214.686 350.988 218.164 351.767 222.17 351.767C226.566 351.767 230.183 350.71 233.021 348.595C235.914 346.425 237.361 343.309 237.361 339.247C237.361 335.853 236.109 332.931 233.605 330.483C231.101 328.035 227.178 326.477 221.836 325.809C215.326 325.03 210.234 323.027 206.562 319.799C202.889 316.516 201.053 312.51 201.053 307.78C201.053 304.386 201.943 301.437 203.724 298.933C205.56 296.429 208.064 294.509 211.236 293.174C214.408 291.782 218.052 291.087 222.17 291.087C226.788 291.087 230.739 292.144 234.022 294.259C237.305 296.317 239.837 298.766 241.618 301.604C242.174 302.494 242.341 303.356 242.118 304.191C241.951 305.026 241.478 305.666 240.699 306.111C239.865 306.5 239.002 306.556 238.112 306.278C237.277 306 236.637 305.471 236.192 304.692C234.912 302.744 233.16 301.047 230.934 299.6C228.764 298.098 225.815 297.319 222.086 297.263C217.691 297.263 214.157 298.209 211.486 300.101C208.815 301.938 207.48 304.636 207.48 308.198C207.48 311.035 208.621 313.512 210.902 315.626C213.239 317.74 217.357 319.215 223.255 320.05C230.21 321.051 235.358 323.194 238.696 326.477C242.091 329.704 243.788 333.933 243.788 339.164C243.788 343.17 242.814 346.592 240.866 349.43C238.974 352.212 236.387 354.327 233.104 355.773C229.821 357.22 226.176 357.943 222.17 357.943Z" fill="black"/>
<path d="M276.683 357.526C272.398 357.526 268.558 356.524 265.164 354.521C261.77 352.462 259.071 349.68 257.068 346.175C255.12 342.669 254.147 338.718 254.147 334.322C254.147 329.871 255.148 325.892 257.151 322.387C259.21 318.881 261.992 316.127 265.498 314.124C269.004 312.065 272.954 311.035 277.35 311.035C281.746 311.035 285.669 312.065 289.119 314.124C292.625 316.127 295.379 318.881 297.382 322.387C299.441 325.892 300.498 329.871 300.554 334.322V353.937C300.554 354.883 300.248 355.662 299.636 356.274C299.024 356.831 298.245 357.109 297.299 357.109C296.353 357.109 295.574 356.831 294.962 356.274C294.35 355.662 294.044 354.883 294.044 353.937V348.846C292.152 351.517 289.703 353.631 286.698 355.189C283.694 356.747 280.355 357.526 276.683 357.526ZM277.35 351.683C280.578 351.683 283.443 350.932 285.947 349.43C288.507 347.927 290.51 345.869 291.957 343.253C293.459 340.582 294.21 337.605 294.21 334.322C294.21 330.984 293.459 328.007 291.957 325.392C290.51 322.776 288.507 320.717 285.947 319.215C283.443 317.657 280.578 316.878 277.35 316.878C274.179 316.878 271.313 317.657 268.753 319.215C266.194 320.717 264.163 322.776 262.66 325.392C261.158 328.007 260.407 330.984 260.407 334.322C260.407 337.605 261.158 340.582 262.66 343.253C264.163 345.869 266.194 347.927 268.753 349.43C271.313 350.932 274.179 351.683 277.35 351.683Z" fill="black"/>
<path d="M142.779 357.943C137.437 357.943 132.708 356.803 128.59 354.521C124.528 352.24 121.634 349.207 119.909 345.423C119.464 344.533 119.436 343.726 119.826 343.003C120.271 342.224 120.994 341.695 121.996 341.417C122.775 341.195 123.526 341.278 124.25 341.667C125.029 342.057 125.613 342.641 126.002 343.42C127.282 345.869 129.397 347.872 132.346 349.43C135.295 350.988 138.773 351.767 142.779 351.767C147.175 351.767 150.792 350.71 153.63 348.595C156.523 346.425 157.97 343.309 157.97 339.247C157.97 335.853 156.718 332.931 154.214 330.483C151.71 328.035 147.787 326.477 142.445 325.809C135.935 325.03 130.843 323.027 127.171 319.799C123.498 316.516 121.662 312.51 121.662 307.78C121.662 304.386 122.552 301.437 124.333 298.933C126.169 296.429 128.673 294.509 131.845 293.174C135.017 291.782 138.661 291.087 142.779 291.087C147.398 291.087 151.348 292.144 154.631 294.259C157.914 296.317 160.446 298.766 162.227 301.604C162.783 302.494 162.95 303.356 162.728 304.191C162.561 305.026 162.088 305.666 161.309 306.111C160.474 306.5 159.611 306.556 158.721 306.278C157.887 306 157.247 305.471 156.801 304.692C155.522 302.744 153.769 301.047 151.543 299.6C149.373 298.098 146.424 297.319 142.696 297.263C138.3 297.263 134.766 298.209 132.095 300.101C129.425 301.938 128.089 304.636 128.089 308.198C128.089 311.035 129.23 313.512 131.511 315.626C133.848 317.74 137.966 319.215 143.864 320.05C150.82 321.051 155.967 323.194 159.305 326.477C162.7 329.704 164.397 333.933 164.397 339.164C164.397 343.17 163.423 346.592 161.476 349.43C159.584 352.212 156.996 354.327 153.713 355.773C150.43 357.22 146.785 357.943 142.779 357.943Z" stroke="black" stroke-width="2" mask="url(#path-1-outside-1)"/>
<path d="M181.767 357.109C180.765 357.109 179.959 356.831 179.346 356.274C178.79 355.662 178.512 354.855 178.512 353.854V314.708C178.512 313.706 178.79 312.927 179.346 312.371C179.959 311.759 180.765 311.453 181.767 311.453C182.713 311.453 183.464 311.759 184.021 312.371C184.633 312.927 184.939 313.706 184.939 314.708V353.854C184.939 354.855 184.633 355.662 184.021 356.274C183.464 356.831 182.713 357.109 181.767 357.109ZM181.684 302.772C180.459 302.772 179.402 302.327 178.512 301.437C177.622 300.546 177.176 299.461 177.176 298.182C177.176 296.79 177.622 295.705 178.512 294.926C179.458 294.092 180.543 293.674 181.767 293.674C182.936 293.674 183.965 294.092 184.855 294.926C185.801 295.705 186.274 296.79 186.274 298.182C186.274 299.461 185.829 300.546 184.939 301.437C184.048 302.327 182.963 302.772 181.684 302.772Z" stroke="black" stroke-width="2" mask="url(#path-1-outside-1)"/>
<path d="M222.17 357.943C216.828 357.943 212.098 356.803 207.981 354.521C203.919 352.24 201.025 349.207 199.3 345.423C198.855 344.533 198.827 343.726 199.217 343.003C199.662 342.224 200.385 341.695 201.387 341.417C202.166 341.195 202.917 341.278 203.64 341.667C204.419 342.057 205.004 342.641 205.393 343.42C206.673 345.869 208.787 347.872 211.737 349.43C214.686 350.988 218.164 351.767 222.17 351.767C226.566 351.767 230.183 350.71 233.021 348.595C235.914 346.425 237.361 343.309 237.361 339.247C237.361 335.853 236.109 332.931 233.605 330.483C231.101 328.035 227.178 326.477 221.836 325.809C215.326 325.03 210.234 323.027 206.562 319.799C202.889 316.516 201.053 312.51 201.053 307.78C201.053 304.386 201.943 301.437 203.724 298.933C205.56 296.429 208.064 294.509 211.236 293.174C214.408 291.782 218.052 291.087 222.17 291.087C226.788 291.087 230.739 292.144 234.022 294.259C237.305 296.317 239.837 298.766 241.618 301.604C242.174 302.494 242.341 303.356 242.118 304.191C241.951 305.026 241.478 305.666 240.699 306.111C239.865 306.5 239.002 306.556 238.112 306.278C237.277 306 236.637 305.471 236.192 304.692C234.912 302.744 233.16 301.047 230.934 299.6C228.764 298.098 225.815 297.319 222.086 297.263C217.691 297.263 214.157 298.209 211.486 300.101C208.815 301.938 207.48 304.636 207.48 308.198C207.48 311.035 208.621 313.512 210.902 315.626C213.239 317.74 217.357 319.215 223.255 320.05C230.21 321.051 235.358 323.194 238.696 326.477C242.091 329.704 243.788 333.933 243.788 339.164C243.788 343.17 242.814 346.592 240.866 349.43C238.974 352.212 236.387 354.327 233.104 355.773C229.821 357.22 226.176 357.943 222.17 357.943Z" stroke="black" stroke-width="2" mask="url(#path-1-outside-1)"/>
<path d="M276.683 357.526C272.398 357.526 268.558 356.524 265.164 354.521C261.77 352.462 259.071 349.68 257.068 346.175C255.12 342.669 254.147 338.718 254.147 334.322C254.147 329.871 255.148 325.892 257.151 322.387C259.21 318.881 261.992 316.127 265.498 314.124C269.004 312.065 272.954 311.035 277.35 311.035C281.746 311.035 285.669 312.065 289.119 314.124C292.625 316.127 295.379 318.881 297.382 322.387C299.441 325.892 300.498 329.871 300.554 334.322V353.937C300.554 354.883 300.248 355.662 299.636 356.274C299.024 356.831 298.245 357.109 297.299 357.109C296.353 357.109 295.574 356.831 294.962 356.274C294.35 355.662 294.044 354.883 294.044 353.937V348.846C292.152 351.517 289.703 353.631 286.698 355.189C283.694 356.747 280.355 357.526 276.683 357.526ZM277.35 351.683C280.578 351.683 283.443 350.932 285.947 349.43C288.507 347.927 290.51 345.869 291.957 343.253C293.459 340.582 294.21 337.605 294.21 334.322C294.21 330.984 293.459 328.007 291.957 325.392C290.51 322.776 288.507 320.717 285.947 319.215C283.443 317.657 280.578 316.878 277.35 316.878C274.179 316.878 271.313 317.657 268.753 319.215C266.194 320.717 264.163 322.776 262.66 325.392C261.158 328.007 260.407 330.984 260.407 334.322C260.407 337.605 261.158 340.582 262.66 343.253C264.163 345.869 266.194 347.927 268.753 349.43C271.313 350.932 274.179 351.683 277.35 351.683Z" stroke="black" stroke-width="2" mask="url(#path-1-outside-1)"/>
<path d="M128.464 220.09C128.052 219.613 128.138 218.954 128.646 218.689C130.29 217.834 132.594 217.955 136.145 219.083C137.417 219.486 140.575 221.433 141.928 222.646C144.407 224.87 145.931 227.076 148.619 232.328L153.9 244.125C154.042 244.404 154.205 244.766 154.352 245.159C153.94 245.049 151.527 244.419 149.174 243.58C146.542 242.421 137.893 238.267 137.514 237.919L135.944 234.588C133.357 228.57 129.752 221.583 128.464 220.09Z" fill="black"/>
<path d="M151.319 228.906C149.877 224.769 149.063 221.62 149.125 221.443C149.196 221.237 149.578 221.107 150.187 221.084C153.477 220.957 157.641 223.195 160.08 226.602C162.001 229.284 166.106 239.501 166.106 239.501L169.635 248.149C169.531 248.375 165.197 247.972 161.669 247.05L157.158 246.04L157.032 245.477L151.319 228.906Z" fill="black"/>
<path d="M165.83 230.171C165.783 229.678 165.742 229.01 165.739 228.686C165.735 228.181 165.854 228.09 166.56 228.058C168.213 227.981 172.197 228.687 173.663 230.457C175.672 232.881 178.609 241.244 178.609 241.244L181.619 248.418C176.332 248.523 172.811 248.348 172.811 248.348C172.632 248.244 170.831 244.449 170.5 243.269L165.83 230.171Z" fill="black"/>
<path d="M149.307 243.369C165.231 249.512 175.065 248.382 187.691 248.382C193.179 248.382 205.883 247.29 211.555 239.958C214.559 236.074 216.044 230.831 215.146 227.913C214.248 224.996 208.862 219.31 203.775 213.7C196.415 204.649 192.678 207.129 188.069 196.268C183.459 185.407 191.635 178.888 194.465 178.99C197.955 178.685 199.587 182.551 205.053 185.68C207.593 187.53 211.411 190.129 215.861 191.857C219.743 195.372 221.093 197.299 226.081 201.047C231.07 204.795 238.672 207.726 246.623 213.724C254.575 219.722 260.37 225.135 260.37 225.135L264.199 228.481L265.317 229.742C268.297 229.942 273.648 228.481 283.357 223.178C287.036 221.169 293.208 216.635 296.491 214.224L296.654 214.104L310.854 202.648C310.854 202.648 315.643 185.113 316.117 173.59C316.117 109.28 273.416 61.9778 203.775 61.9778C168.784 63.7874 100.895 89.683 102.984 178.99C103.545 187.652 107.432 210.794 122.94 232.011C128.428 232.825 140.638 240.024 149.307 243.369Z" fill="#C0C0C0"/>
<mask id="mask0" mask-type="alpha" maskUnits="userSpaceOnUse" x="151" y="111" width="116" height="116">
<circle cx="209.325" cy="168.672" r="57.5559" fill="#243E35"/>
</mask>
<g mask="url(#mask0)">
<path d="M149.305 243.369C165.229 249.512 175.063 248.382 187.689 248.382C193.177 248.382 205.881 247.29 211.553 239.958C214.557 236.074 216.042 230.831 215.144 227.913C214.246 224.996 208.86 219.31 203.773 213.7C196.413 204.649 192.676 207.129 188.067 196.268C183.458 185.407 191.633 178.888 194.463 178.99C197.953 178.685 199.585 182.551 205.051 185.68C207.591 187.53 211.409 190.129 215.859 191.857C219.741 195.372 221.091 197.299 226.079 201.047C231.068 204.795 238.67 207.726 246.621 213.724C254.573 219.722 260.368 225.135 260.368 225.135L264.197 228.481L265.315 229.742C268.295 229.942 273.646 228.481 283.355 223.178C287.034 221.169 293.206 216.635 296.489 214.224L296.652 214.104L310.852 202.648C310.852 202.648 315.641 185.113 316.115 173.59C316.115 109.28 273.414 61.9778 203.773 61.9778C168.782 63.7874 100.893 89.683 102.982 178.99C103.543 187.652 107.43 210.794 122.938 232.011C128.426 232.825 140.636 240.024 149.305 243.369Z" fill="black"/>
</g>
<path d="M193.995 183.196C187.87 187.491 191.426 196.303 194.326 199.815C195.867 201.681 207.335 211.617 207.335 211.617L215.84 221.64C215.84 221.64 218.264 225.029 218.891 227.465C219.518 229.9 219.093 234.359 217.918 236.865C216.743 239.371 213.477 242.961 213.477 242.961C213.477 242.961 208.541 248.431 202.566 250.076C197.589 251.447 189.966 252.168 179.941 252.217C168.828 252.27 163.91 251.771 156.911 249.878C153.385 248.924 147.864 247.034 146.473 246.305C145.963 246.037 145.225 245.704 144.835 245.565C143.869 245.221 139.992 243.319 134.526 240.505C128.712 237.513 129.06 237.682 127.218 236.957C125.462 236.266 122.584 235.714 120.392 235.648C119.484 235.62 117.645 235.896 115.461 236.386C112.214 237.115 111.894 237.233 110.755 238.128C109.404 239.19 108.612 240.227 108.735 240.775C108.779 240.971 109.168 241.261 109.599 241.419C114.059 243.052 119.771 246.221 131.197 253.404C142.834 260.719 145.788 262.462 151.354 265.298C152.572 265.918 153.856 266.578 154.21 266.764C154.562 266.951 155.125 267.179 155.461 267.272C155.796 267.365 157.261 268.351 158.317 268.801C161.892 270.321 165.075 271.271 171.922 272.068C177.638 272.734 186.165 274.44 194.275 275.607C209.121 279.174 212.094 278.745 218.666 277.92C218.666 277.92 239.866 276.466 245.277 275.607C250.688 274.749 266.118 268.902 274.058 262.407C281.999 255.912 289.953 243.957 297.882 230.625C302.512 222.841 307 214.221 308.475 209.994L291.119 223.064C291.119 223.064 267.586 237.886 262.518 232.307C257.377 226.648 241.695 214.923 241.695 214.923C241.695 214.923 230.314 207.799 226.709 205.954C223.104 204.11 218.286 199.395 218.286 199.395L213.607 195.121L209.008 192.948C209.008 192.948 201.502 188.281 199.241 186.229C198.516 185.695 197.03 184.526 195.78 183.348C195.206 182.807 194.344 182.601 193.995 183.196Z" fill="black"/>
</svg>
